<svg xmlns="http://www.w3.org/2000/svg" viewBox="0 0 64 64" width="64" height="64">
  <defs>
    <linearGradient id="flame" x1="0" y1="0" x2="1" y2="1">
      <stop offset="0" stop-color="#f6a01a"/>
      <stop offset="0.55" stop-color="#ec5a1c"/>
      <stop offset="1" stop-color="#c01f1f"/>
    </linearGradient>
  </defs>
  <rect width="64" height="64" rx="14" fill="#0b0b0d"/>
  <path fill="url(#flame)" d="M33.4 8c1.9 6.9-1.8 10.6-5.3 14.1-3.8 3.8-7.8 7.7-7.8 15.1C20.3 47 26.6 54 34 54c7.6 0 13.6-6 13.6-14 0-4.6-2-8.2-4.2-11 .3 2.6-.6 4.7-2.3 5.6 .8-4.8-.9-9.9-4-13.6C34.7 18 33.9 12.6 33.4 8Z"/>
  <path fill="#f6a01a" opacity="0.9" d="M32 33c1.2 3.2-.6 5-2 6.6-1.6 1.8-2.7 3.4-2.7 5.6C27.3 48.7 29.4 51 32 51c2.7 0 4.8-2.4 4.8-5.6 0-2.9-1.8-4.9-3.1-6.7-.9-1.2-1.6-2.9-1.7-5.7Z"/>
</svg>
